<svg width="27" height="21" viewBox="0 0 27 21" fill="none" xmlns="http://www.w3.org/2000/svg">
<path d="M5.5 5.80001C5.5 5.58784 5.58428 5.38436 5.73431 5.23433C5.88434 5.0843 6.08782 5.00001 6.3 5.00001H17.5C17.7122 5.00001 17.9157 5.0843 18.0657 5.23433C18.2157 5.38436 18.3 5.58784 18.3 5.80001C18.3 6.01219 18.2157 6.21567 18.0657 6.3657C17.9157 6.51573 17.7122 6.60001 17.5 6.60001H6.3C6.08782 6.60001 5.88434 6.51573 5.73431 6.3657C5.58428 6.21567 5.5 6.01219 5.5 5.80001ZM14.3 9.80001C14.0878 9.80001 13.8843 9.8843 13.7343 10.0343C13.5843 10.1844 13.5 10.3878 13.5 10.6C13.5 10.8122 13.5843 11.0157 13.7343 11.1657C13.8843 11.3157 14.0878 11.4 14.3 11.4H17.5C17.7122 11.4 17.9157 11.3157 18.0657 11.1657C18.2157 11.0157 18.3 10.8122 18.3 10.6C18.3 10.3878 18.2157 10.1844 18.0657 10.0343C17.9157 9.8843 17.7122 9.80001 17.5 9.80001H14.3ZM13.5 15.4C13.5 15.1878 13.5843 14.9844 13.7343 14.8343C13.8843 14.6843 14.0878 14.6 14.3 14.6H17.5C17.7122 14.6 17.9157 14.6843 18.0657 14.8343C18.2157 14.9844 18.3 15.1878 18.3 15.4C18.3 15.6122 18.2157 15.8157 18.0657 15.9657C17.9157 16.1157 17.7122 16.2 17.5 16.2H14.3C14.0878 16.2 13.8843 16.1157 13.7343 15.9657C13.5843 15.8157 13.5 15.6122 13.5 15.4ZM6.3 9.80001C6.08782 9.80001 5.88434 9.8843 5.73431 10.0343C5.58428 10.1844 5.5 10.3878 5.5 10.6V15.4C5.5 15.6122 5.58428 15.8157 5.73431 15.9657C5.88434 16.1157 6.08782 16.2 6.3 16.2H11.1C11.3122 16.2 11.5157 16.1157 11.6657 15.9657C11.8157 15.8157 11.9 15.6122 11.9 15.4V10.6C11.9 10.3878 11.8157 10.1844 11.6657 10.0343C11.5157 9.8843 11.3122 9.80001 11.1 9.80001H6.3ZM7.1 14.6V11.4H10.3V14.6H7.1ZM0.699997 3.40001C0.699997 2.55132 1.03714 1.73739 1.63726 1.13727C2.23737 0.537154 3.0513 0.200012 3.9 0.200012H19.9C20.7487 0.200012 21.5626 0.537154 22.1627 1.13727C22.7629 1.73739 23.1 2.55132 23.1 3.40001V5.00001C23.9487 5.00001 24.7626 5.33715 25.3627 5.93727C25.9629 6.53739 26.3 7.35132 26.3 8.20001V17C26.3 18.0609 25.8786 19.0783 25.1284 19.8284C24.3783 20.5786 23.3609 21 22.3 21H4.7C3.63913 21 2.62172 20.5786 1.87157 19.8284C1.12142 19.0783 0.699997 18.0609 0.699997 17V3.40001ZM21.5 3.40001C21.5 2.97567 21.3314 2.5687 21.0314 2.26864C20.7313 1.96858 20.3243 1.80001 19.9 1.80001H3.9C3.47565 1.80001 3.06868 1.96858 2.76863 2.26864C2.46857 2.5687 2.3 2.97567 2.3 3.40001V17C2.3 17.6365 2.55285 18.247 3.00294 18.6971C3.45303 19.1472 4.06348 19.4 4.7 19.4H22.3C22.9365 19.4 23.547 19.1472 23.9971 18.6971C24.4471 18.247 24.7 17.6365 24.7 17V8.20001C24.7 7.77567 24.5314 7.3687 24.2314 7.06864C23.9313 6.76858 23.5243 6.60001 23.1 6.60001V17C23.1 17.2122 23.0157 17.4157 22.8657 17.5657C22.7157 17.7157 22.5122 17.8 22.3 17.8C22.0878 17.8 21.8843 17.7157 21.7343 17.5657C21.5843 17.4157 21.5 17.2122 21.5 17V3.40001Z" fill="#61616B"/>
</svg>
