<svg width="34" height="34" viewBox="0 0 34 34" fill="none" xmlns="http://www.w3.org/2000/svg">
<rect width="34" height="34" rx="17" fill="#EADDFF"/>
<path fill-rule="evenodd" clip-rule="evenodd" d="M22.1002 13.6C22.1002 16.4167 19.8169 18.7 17.0002 18.7C14.1836 18.7 11.9002 16.4167 11.9002 13.6C11.9002 10.7833 14.1836 8.5 17.0002 8.5C19.8169 8.5 22.1002 10.7833 22.1002 13.6ZM20.4002 13.6C20.4002 15.4778 18.878 17 17.0002 17C15.1224 17 13.6002 15.4778 13.6002 13.6C13.6002 11.7222 15.1224 10.2 17.0002 10.2C18.878 10.2 20.4002 11.7222 20.4002 13.6Z" fill="#4F378A"/>
<path d="M17.0002 21.25C11.497 21.25 6.80809 24.5042 5.02197 29.0632C5.45708 29.4953 5.91544 29.904 6.395 30.2872C7.72503 26.1015 11.8974 22.95 17.0002 22.95C22.103 22.95 26.2754 26.1015 27.6054 30.2873C28.085 29.904 28.5433 29.4953 28.9785 29.0632C27.1923 24.5042 22.5034 21.25 17.0002 21.25Z" fill="#4F378A"/>
</svg>
