<svg width="22" height="21" viewBox="0 0 22 21" fill="none" xmlns="http://www.w3.org/2000/svg">
<path d="M7.875 16.75V3.20833L20.375 1.125V14.6667M7.875 16.75C7.875 18.4759 6.47589 19.875 4.75 19.875C3.02411 19.875 1.625 18.4759 1.625 16.75C1.625 15.0241 3.02411 13.625 4.75 13.625C6.47589 13.625 7.875 15.0241 7.875 16.75ZM20.375 14.6667C20.375 16.3926 18.9759 17.7917 17.25 17.7917C15.5241 17.7917 14.125 16.3926 14.125 14.6667C14.125 12.9408 15.5241 11.5417 17.25 11.5417C18.9759 11.5417 20.375 12.9408 20.375 14.6667Z" stroke="#61616B" stroke-width="2" stroke-linecap="round" stroke-linejoin="round"/>
</svg>
