<svg width="22" height="22" viewBox="0 0 22 22" fill="none" xmlns="http://www.w3.org/2000/svg">
<path d="M14.4897 0.0693359C15.8513 0.207492 16.9135 1.35692 16.9136 2.75488V4.53027H19.228C20.7189 4.53038 21.9279 5.73967 21.9282 7.23047V19.2998C21.9281 20.7908 20.719 21.9999 19.228 22H2.77197C1.28096 21.9999 0.0718793 20.7908 0.0717773 19.2998V7.23047C0.0721365 5.73967 1.28111 4.53038 2.77197 4.53027H6.19971V2.75488C6.19981 1.26394 7.40898 0.0549033 8.8999 0.0546875H14.2144L14.4897 0.0693359ZM1.87256 19.2998C1.87266 19.7967 2.27507 20.1991 2.77197 20.1992H19.228C19.7249 20.1991 20.1283 19.7967 20.1284 19.2998V11.1807L12.4272 13.9111C11.9423 14.083 11.4199 14.1125 10.9214 13.998L10.7095 13.9404L1.87256 11.1367V19.2998ZM2.77197 6.33105C2.27523 6.33116 1.87292 6.73378 1.87256 7.23047V9.24805L11.2534 12.2246L11.396 12.2568C11.54 12.2778 11.6882 12.2639 11.8267 12.2148L20.1284 9.27051V7.23047C20.1281 6.73378 19.7248 6.33116 19.228 6.33105H2.77197ZM8.8999 1.85547C8.4031 1.85568 8.00059 2.25805 8.00049 2.75488V4.53027H15.1138V2.75488C15.1137 2.28903 14.7598 1.90553 14.3062 1.85938L14.2144 1.85547H8.8999Z" fill="#61616B"/>
</svg>
